<svg xmlns="http://www.w3.org/2000/svg" width="1280" height="760" viewBox="0 0 1280 760" role="img" aria-labelledby="title desc">
  <title id="title">YOWOW GEO website visual</title>
  <desc id="desc">A clean website and GEO optimization visual for the YOWOW brand site.</desc>
  <rect width="1280" height="760" fill="#f7f3ea"/>
  <rect x="60" y="54" width="1160" height="652" rx="30" fill="#fffaf0" stroke="#d4cab7" stroke-width="2"/>
  <rect x="96" y="92" width="1088" height="72" rx="18" fill="#20251f"/>
  <circle cx="134" cy="128" r="12" fill="#d9b35f"/>
  <circle cx="170" cy="128" r="12" fill="#8ca66b"/>
  <text x="214" y="136" font-family="Inter,Arial,sans-serif" font-size="20" font-weight="800" fill="#fffaf0">YOWOW · AI 教育硬件品牌官网</text>
  <text x="96" y="222" font-family="Inter,Arial,sans-serif" font-size="44" font-weight="800" fill="#20251f">面向搜索引擎与 AI 引擎的 GEO 官网</text>
  <text x="96" y="264" font-family="Inter,Arial,sans-serif" font-size="18" fill="#5d665d">Hugo 多页面结构 · JSON-LD · robots.txt · sitemap.xml · llms.txt · 多格式输出</text>

  <g font-family="Inter,Arial,sans-serif">
    <rect x="96" y="326" width="246" height="168" rx="20" fill="#e8efdd" stroke="#9bad7f" stroke-width="2"/>
    <text x="126" y="374" font-size="22" font-weight="800" fill="#20251f">站点结构</text>
    <text x="126" y="412" font-size="16" fill="#5d665d">品牌首页 / 产品页</text>
    <text x="126" y="442" font-size="16" fill="#5d665d">场景页 / 内容页</text>

    <rect x="392" y="326" width="246" height="168" rx="20" fill="#ffffff" stroke="#d4cab7" stroke-width="2"/>
    <text x="422" y="374" font-size="22" font-weight="800" fill="#20251f">机器可读</text>
    <text x="422" y="412" font-size="16" fill="#5d665d">JSON-LD / llms.txt</text>
    <text x="422" y="442" font-size="16" fill="#5d665d">sitemap / robots</text>

    <rect x="688" y="326" width="246" height="168" rx="20" fill="#ffffff" stroke="#d4cab7" stroke-width="2"/>
    <text x="718" y="374" font-size="22" font-weight="800" fill="#20251f">GEO 目标</text>
    <text x="718" y="412" font-size="16" fill="#5d665d">豆包 / Kimi / DeepSeek</text>
    <text x="718" y="442" font-size="16" fill="#5d665d">GPTBot / ClaudeBot</text>

    <rect x="984" y="326" width="200" height="168" rx="20" fill="#f3e5c3" stroke="#d9b35f" stroke-width="2"/>
    <text x="1014" y="374" font-size="22" font-weight="800" fill="#20251f">待补</text>
    <text x="1014" y="412" font-size="16" fill="#5d665d">FAQ</text>
    <text x="1014" y="442" font-size="16" fill="#5d665d">公司真实信息</text>
  </g>

  <rect x="96" y="560" width="1088" height="76" rx="24" fill="#20251f"/>
  <text x="132" y="608" font-family="Inter,Arial,sans-serif" font-size="18" fill="#fffaf0">独立完成：信息架构、静态站实现、结构化数据、爬虫友好配置与 AI 引擎可读性优化。</text>
</svg>
